<?xml version="1.0" standalone="no"?>
<!DOCTYPE svg PUBLIC "-//W3C//DTD SVG 20010904//EN"
 "http://www.w3.org/TR/2001/REC-SVG-20010904/DTD/svg10.dtd">
<svg version="1.0" xmlns="http://www.w3.org/2000/svg"
 width="2048.000000pt" height="2048.000000pt" viewBox="0 0 2048.000000 2048.000000"
 preserveAspectRatio="xMidYMid meet">
<metadata>
Created by potrace 1.16, written by Peter Selinger 2001-2019
</metadata>
<g transform="translate(0.000000,2048.000000) scale(0.100000,-0.100000)"
fill="#000000" stroke="none">
<path d="M9775 16438 c-97 -104 -315 -337 -397 -423 -42 -44 -86 -91 -98 -105
-12 -14 -56 -61 -98 -105 -77 -81 -305 -324 -356 -380 -15 -16 -62 -66 -104
-110 -43 -45 -135 -143 -207 -220 -71 -77 -164 -176 -207 -220 -42 -44 -89
-93 -104 -110 -48 -53 -277 -297 -356 -380 -42 -44 -89 -93 -104 -110 -15 -16
-82 -88 -149 -160 -67 -71 -134 -143 -149 -160 -15 -16 -62 -66 -104 -110 -43
-44 -135 -143 -207 -220 -71 -77 -164 -175 -206 -220 -101 -105 -148 -159
-149 -166 0 -6 44 -49 290 -279 79 -74 180 -169 225 -212 44 -42 89 -85 101
-95 24 -21 270 -252 389 -365 44 -42 91 -86 105 -98 14 -12 61 -56 105 -98
107 -102 363 -343 385 -362 22 -19 278 -260 385 -362 44 -42 91 -86 105 -98
14 -12 61 -56 105 -98 45 -43 143 -135 220 -207 77 -71 176 -164 220 -207 44
-42 94 -89 110 -104 49 -44 293 -273 384 -359 46 -44 89 -85 95 -90 6 -6 35
-32 64 -59 28 -27 52 -46 52 -43 0 5 -100 103 -165 162 -16 15 -66 61 -110
103 -45 43 -143 136 -220 207 -77 72 -176 164 -220 207 -44 42 -93 89 -110
104 -53 48 -297 277 -380 356 -44 42 -93 89 -110 104 -55 50 -298 278 -380
356 -44 42 -93 89 -110 104 -56 51 -299 279 -380 356 -44 42 -89 85 -101 95
-24 21 -270 252 -389 365 -44 42 -91 86 -105 98 -14 12 -61 56 -105 98 -112
107 -351 331 -405 380 l-45 41 55 57 c30 32 60 63 65 69 15 17 268 286 357
380 42 44 85 89 95 101 21 24 252 270 365 389 42 44 86 91 98 105 12 14 56 61
98 105 113 119 344 365 365 389 10 12 53 57 95 101 43 45 136 143 207 220 72
77 164 176 207 220 42 44 89 94 104 110 15 17 82 89 149 160 67 72 134 144
149 160 15 17 62 66 104 110 84 88 313 332 356 380 15 17 60 64 100 105 69 71
93 100 83 100 -3 0 -31 -28 -62 -62z"/>
<path d="M12475 10538 c-957 -1028 -1742 -1875 -1744 -1881 -5 -15 -220 -246
1704 1823 928 998 1711 1839 1738 1867 28 29 49 54 46 57 -2 2 -787 -838
-1744 -1866z"/>
<path d="M5870 12267 c0 -5 3461 -3257 3620 -3402 30 -28 49 -43 42 -34 -6 9
-10 18 -7 21 3 3 -4 13 -15 23 -11 10 -20 14 -20 10 0 -4 -28 19 -62 51 -35
32 -62 62 -61 65 1 4 -9 17 -22 29 -14 13 -25 20 -25 16 0 -5 -28 18 -62 50
-35 32 -62 61 -61 65 1 4 -7 15 -17 24 -11 10 -20 15 -20 10 0 -4 -28 19 -62
51 -35 32 -62 61 -61 65 1 4 -7 15 -17 24 -11 10 -20 15 -20 10 0 -4 -28 19
-62 51 -35 32 -62 61 -61 65 1 3 -9 17 -22 29 -14 13 -25 20 -25 16 0 -5 -28
18 -62 50 -35 32 -62 61 -61 65 1 4 -7 15 -17 24 -11 10 -20 15 -20 10 0 -4
-28 19 -62 51 -35 32 -62 61 -61 65 1 4 -7 15 -17 24 -11 10 -20 15 -20 10 0
-4 -28 19 -62 51 -35 32 -62 61 -61 65 1 3 -9 17 -22 29 -14 13 -25 20 -25 16
0 -5 -28 18 -62 50 -35 32 -62 61 -61 65 1 4 -7 15 -17 24 -11 10 -20 15 -20
10 0 -4 -28 19 -62 51 -35 32 -62 61 -61 65 1 4 -7 15 -17 24 -11 10 -20 15
-20 10 0 -4 -28 19 -62 51 -35 32 -62 61 -61 65 1 4 -7 15 -17 24 -11 10 -20
15 -20 10 0 -4 -30 21 -67 56 -38 35 -67 66 -66 70 1 4 -7 15 -17 24 -11 10
-20 15 -20 10 0 -4 -28 19 -62 51 -35 32 -62 61 -61 65 1 4 -7 15 -17 24 -11
10 -20 15 -20 10 0 -4 -28 19 -62 51 -35 32 -62 61 -61 65 1 4 -7 15 -17 24
-11 10 -20 15 -20 10 0 -4 -30 21 -67 56 -38 35 -67 66 -66 70 1 4 -7 15 -17
24 -11 10 -20 15 -20 10 0 -4 -28 19 -62 51 -35 32 -62 61 -61 65 1 4 -7 15
-17 24 -11 10 -20 15 -20 10 0 -4 -28 19 -62 51 -35 32 -62 61 -61 65 1 4 -7
15 -17 24 -11 10 -20 15 -20 10 0 -4 -30 21 -67 56 -38 35 -67 66 -66 70 1 4
-7 15 -17 24 -11 10 -20 15 -20 10 0 -4 -28 19 -62 51 -35 32 -62 61 -61 65 1
4 -7 15 -17 24 -11 10 -20 15 -20 10 0 -4 -28 19 -62 51 -35 32 -62 61 -61 65
1 4 -7 15 -17 24 -11 10 -20 15 -20 10 0 -4 -30 21 -67 56 -38 35 -67 66 -66
70 1 4 -7 15 -17 24 -11 10 -20 15 -20 10 0 -4 -28 19 -62 51 -35 32 -62 61
-61 65 1 4 -7 15 -17 24 -11 10 -20 15 -20 10 0 -4 -28 19 -62 51 -35 32 -62
61 -61 65 1 4 -7 15 -17 24 -11 10 -20 15 -20 10 0 -4 -7 -2 -15 5 -8 7 -15
10 -15 7z"/>
<path d="M5739 12138 c-63 -68 -148 -159 -191 -203 -42 -44 -85 -89 -95 -101
-21 -24 -252 -270 -365 -389 -42 -44 -85 -89 -95 -101 -21 -24 -252 -270 -365
-389 -42 -44 -86 -91 -98 -105 -12 -14 -56 -61 -98 -105 -43 -45 -135 -143
-207 -220 -71 -77 -164 -176 -207 -220 -42 -44 -89 -93 -104 -110 -15 -16 -82
-88 -149 -160 -67 -71 -134 -143 -149 -160 -15 -16 -62 -66 -104 -110 -43 -44
-135 -143 -207 -220 -71 -77 -164 -175 -207 -220 -42 -44 -89 -93 -104 -110
-15 -16 -84 -90 -153 -164 -138 -147 -140 -150 -190 -207 -55 -62 121 118 269
275 74 79 142 152 150 161 19 22 260 278 362 385 42 44 86 91 98 105 12 14 56
61 98 105 43 45 136 143 207 220 72 77 164 176 207 220 42 44 89 94 104 110
48 53 277 297 356 380 42 44 89 94 104 110 15 17 82 89 149 160 67 72 134 144
149 160 15 17 62 66 104 110 43 44 136 143 207 220 72 77 164 175 207 220 42
44 85 89 95 101 10 12 79 86 153 164 74 79 142 151 150 160 26 27 43 50 38 50
-3 0 -56 -55 -119 -122z"/>
</g>
</svg>
